<?xml version="1.0" encoding="UTF-8"?>
<svg xmlns="http://www.w3.org/2000/svg" xmlns:xlink="http://www.w3.org/1999/xlink" width="800" height="800" viewBox="0 0 800 800">
  <g id="Capa2">
    <g id="Capa1-2">
      <path id="Trazado" fill="#124395" fill-rule="evenodd" stroke="none" d="M 161.630005 462.899994 C 161.630005 444.849976 154.789993 443.329987 143.369995 441.589996 C 154.569992 439.309998 158.809998 434.850006 158.809998 421.26001 C 158.809998 405.070007 149.459991 400.389984 135.809998 400.389984 L 57.829998 400.389984 L 57.829998 483.869995 L 138.699997 483.869995 C 150.979996 483.869995 161.630005 480.720001 161.630005 462.869995 Z M 127.629997 434.199982 L 82.389999 434.199982 L 82.389999 419.309998 L 127.18 419.309998 C 135.869995 419.309998 136.089996 434.199982 127.610001 434.199982 Z M 130.459991 450.289978 C 138.940002 450.289978 138.720001 464.73999 130.23999 464.73999 L 82.389999 464.73999 L 82.389999 450.289978 Z"></path>
      <path id="path1" fill="#124395" stroke="none" d="M 197.300003 483.869995 L 197.300003 400.389984 L 172.520004 400.389984 L 172.520004 483.869995 L 197.300003 483.869995 L 197.300003 483.869995 Z"></path>
      <path id="path2" fill="#124395" stroke="none" d="M 310.679993 483.869995 L 310.679993 464.309998 L 246.770004 464.309998 L 309.269989 418.869995 L 309.269989 400.389984 L 211.330002 400.389984 L 211.330002 418.440002 L 271.660004 418.440002 L 209.699997 463.869995 L 209.699997 483.869995 L 310.679993 483.869995 L 310.679993 483.869995 Z"></path>
      <path id="path3" fill="#124395" stroke="none" d="M 437.450012 483.869995 L 384.839996 441.589996 L 434.51001 400.389984 L 397.769989 400.389984 L 362.769989 430.829987 L 347.450012 430.829987 L 347.450012 400.389984 L 322.230011 400.389984 L 322.230011 483.869995 L 347.450012 483.869995 L 347.450012 451.589996 L 362.769989 451.589996 L 400.709991 483.869995 L 437.450012 483.869995 L 437.450012 483.869995 Z"></path>
      <path id="path4" fill="#124395" fill-rule="evenodd" stroke="none" d="M 571.919983 483.869995 L 525.179993 400.389984 L 490.609985 400.389984 L 443.660004 483.869995 L 471.920013 483.869995 L 480.399994 468.769989 L 535.619995 468.769989 L 543.619995 483.869995 Z M 526.480042 452.679993 L 489.73999 452.679993 L 508 419.769989 L 526.470032 452.709991 Z"></path>
      <path id="path5" fill="#124395" stroke="none" d="M 605.309998 483.869995 L 605.309998 400.389984 L 580.530029 400.389984 L 580.530029 483.869995 L 605.309998 483.869995 L 605.309998 483.869995 Z"></path>
      <path id="path6" fill="#124395" fill-rule="evenodd" stroke="none" d="M 743.150024 483.869995 L 696.409973 400.389984 L 661.840027 400.389984 L 614.840027 483.869995 L 643.099976 483.869995 L 651.580017 468.769989 L 706.789978 468.769989 L 714.789978 483.869995 Z M 697.710022 452.679993 L 661 452.679993 L 679.22998 419.769989 L 697.710022 452.709991 Z"></path>
      <path id="path7" fill="#d2d4ec" fill-rule="evenodd" stroke="none" d="M 32 617.830017 C 33.639999 622.099976 40.400002 618.830017 46 618.48999 C 51.600002 618.150024 75.770004 613.880005 89.900002 609.609985 C 104.029999 605.340027 127.900002 594.609985 127.900002 594.609985 C 127.900002 594.609985 124.099998 615.179993 140.389999 616.169983 C 156.680008 617.160034 184.809998 594.289978 184.809998 594.289978 L 179.550003 605.970032 C 178.998932 607.11377 178.998932 608.446228 179.550003 609.590027 C 180.550003 611.22998 182.839996 614.190002 184.809998 613.859985 C 186.779999 613.530029 193.029999 612.220032 195.330002 611.859985 C 197.630005 611.5 200.259995 611.200012 202.229996 608.25 C 204.199997 605.299988 214.229996 589 216.880005 585.380005 C 219.529999 581.76001 225.940002 572.559998 238.100006 570.590027 C 245.173828 569.417786 252.308746 568.649902 259.470001 568.289978 L 239.75 603.289978 C 239.75 603.289978 235.470001 609.210022 239.75 611.840027 C 242.309998 613.419983 248.470001 611.72998 253.380005 611.109985 C 256.649994 610.690002 259.380005 611.580017 260.130005 611.179993 C 262.130005 610.179993 269.330017 597.380005 269.330017 597.380005 C 269.330017 597.380005 276.399994 584.109985 283 577.869995 C 283 577.869995 287.75 569.97998 301.73999 568.340027 C 315.730011 566.700012 320.01001 568.01001 320.01001 568.01001 C 320.01001 568.01001 306.859985 580.640015 305.540009 590.359985 C 304.220001 600.080017 306.540009 610.929993 319.679993 611.910034 C 332.820007 612.890015 338.269989 610.27002 344.839996 607.970032 C 351.410004 605.669983 359.640015 599.090027 359.640015 599.090027 C 359.640015 599.090027 359.48999 611.75 373.959991 611.580017 C 401.75 611.25 422.459991 587.72998 422.459991 587.72998 C 422.459991 587.72998 421.299988 607.970032 440 609.940002 C 440 609.940002 458.26001 609.789978 470.100006 601.720032 L 482 593.650024 C 482 593.650024 480.829987 608.299988 491.209991 610.929993 C 501.589996 613.559998 516.210022 610.27002 527.410034 602.710022 C 538.609985 595.150024 547.409973 589.369995 547.409973 589.369995 C 547.409973 589.369995 545.950012 605.669983 559.409973 608.950012 C 572.869995 612.22998 591.150024 604.530029 599.409973 599.419983 C 607.669983 594.309998 608.940002 592.98999 608.940002 592.98999 C 608.940002 592.98999 606.940002 617.5 635.090027 618.160034 C 663.23999 618.820007 765 585.77002 765 585.77002 C 765 585.77002 774.530029 580.840027 764 583.140015 C 753.469971 585.440002 705.299988 596.140015 690 598.440002 C 674.700012 600.73999 656.429993 602.390015 645.580017 599.440002 C 634.72998 596.48999 631.119995 592.679993 639.98999 581.179993 C 648.859985 569.679993 652.809998 564.27002 647.22998 563.099976 C 645.130005 562.660034 642.330017 563.919983 639.659973 563.75 C 636.746033 563.518982 633.874939 562.907104 631.119995 561.929993 L 627.5 562.26001 C 627.5 562.26001 612.559998 581.26001 597.72998 589.390015 C 586.039978 595.820007 570.309998 597.26001 578.150024 584.460022 C 584.400024 574.27002 589.659973 569.669983 599.380005 566.049988 C 608.440002 562.679993 614.5 562.580017 616.799988 559.950012 C 619.099976 557.320007 620.090027 554.039978 609.570007 550.419983 C 599.049988 546.799988 583.73999 550.75 575.849976 555.349976 C 567.960022 559.950012 548.570007 577.890015 536.850037 585.780029 C 525.130005 593.669983 515.100037 598.910034 510.040009 596.150024 C 502.480011 592.02002 511.170013 581.359985 521.540039 567.700012 C 531.910034 554.039978 532.25 555.699951 531.26001 553.699951 C 530.27002 551.699951 526.470032 549.75 524.170044 550.079956 C 521.869995 550.410034 519.23999 550.73999 517.929993 550.410034 C 516.619995 550.079956 513.650024 548.109985 511.350006 548.410034 C 509.049988 548.709961 509.049988 549.410034 507.410004 551.410034 C 505.769989 553.410034 490.190002 577.539978 479 585.099976 C 467.809998 592.660034 451.209991 601.900024 448.25 595.47998 C 445.290009 589.059998 446.75 580.02002 458.109985 564.390015 C 469.470001 548.76001 469.109985 549.089966 469.109985 549.089966 C 469.109985 549.089966 497.570007 548.089966 499.209991 548.089966 C 500.850006 548.089966 501.209991 546.449951 502.829987 544.469971 C 504.450012 542.48999 508.269989 542.919983 507.079987 541.199951 C 506.140015 539.849976 474.700012 540.859985 474.700012 540.859985 L 487.519989 521.609985 C 487.519989 521.609985 488.839996 516.349976 487.190002 516.02002 C 485.540009 515.690002 483.899994 514.380005 482.920013 515.359985 C 481.940002 516.339966 480.619995 517.660034 478.640015 517.359985 C 476.660004 517.059998 474.040009 515.359985 472.399994 514.72998 C 470.76001 514.099976 467.649994 513.089966 462.869995 519.98999 C 458.089996 526.890015 449.200012 541.219971 449.200012 541.219971 L 420.130005 541.219971 C 420.130005 541.219971 419.130005 541.549988 420.459991 544.5 C 421.790009 547.449951 421.459991 549.429993 424.079987 549.429993 L 443.329987 549.429993 C 443.329987 549.429993 432.329987 566.710022 422.76001 576.25 C 413.190002 585.789978 396.100006 601.450012 387.76001 598.130005 C 379.670013 594.910034 387.910004 583.98999 396.309998 573.289978 C 404.709991 562.590027 409.970001 557.650024 405.700012 556.669983 C 401.429993 555.690002 400.420013 556.72998 397.459991 556.080017 C 394.5 555.429993 390.390015 554.690002 387.459991 555.679993 C 384.529999 556.669983 381.220001 561.780029 377.600006 566.679993 C 373.980011 571.580017 356.709991 591.150024 347.5 593.970032 C 338.290009 596.789978 331.869995 597.25 332.859985 591.669983 C 333.850006 586.090027 341.920013 575.559998 351.119995 572.599976 C 359.119995 570.02002 371.359985 565.039978 371.359985 565.039978 C 371.359985 565.039978 376.619995 564.849976 374.970001 558.609985 C 373.320007 552.369995 361.820007 549.400024 347.179993 554.339966 C 332.540009 559.280029 328.579987 561.23999 328.579987 561.23999 C 328.579987 561.23999 320.690002 558.609985 315.76001 558.23999 C 310.829987 557.869995 311.48999 557.910034 311.48999 557.910034 C 311.48999 557.910034 315.25 552.319946 300.130005 555.280029 C 285.01001 558.23999 286.649994 559.880005 286.649994 559.880005 C 286.649994 559.880005 283.649994 554.949951 280.410004 555.609985 C 277.170013 556.27002 278.950012 555.660034 276.130005 553.969971 C 271.200012 550.969971 266.130005 558.570007 266.130005 558.570007 C 263.299683 558.98175 260.433655 559.092346 257.580017 558.900024 C 252.979996 558.570007 251.660004 558.570007 251.660004 558.570007 C 251.660004 558.570007 251.520004 551.669983 240.160004 555.940002 C 228.800003 560.210022 228.470001 560.210022 228.470001 560.210022 C 228.470001 560.210022 226.169998 554.949951 223.860001 554.949951 C 221.550003 554.949951 220.580002 555.280029 219.259995 555.280029 C 217.940002 555.280029 214.190002 553.280029 209.729996 557.580017 C 205.270004 561.880005 193.289993 575.98999 179.960007 586.039978 C 166.630005 596.090027 154 602.830017 151.389999 599.650024 C 149.130005 596.890015 149.389999 593.320007 155.020004 585.429993 C 160.649994 577.539978 169.160004 563.429993 169.160004 563.429993 L 170.470001 561.280029 C 170.386978 560.073608 169.92897 558.923279 169.160004 557.98999 C 167.839996 556.349976 166.160004 555.690002 164.880005 555.98999 C 163.600006 556.289978 162.25 557.299988 160.610001 556.98999 C 158.970001 556.679993 157.320007 553.039978 153.380005 553.98999 C 149.440002 554.940002 147.460007 557.929993 145.160004 560.22998 C 142.860001 562.530029 130 579.660034 113.75 589.369995 C 97.5 599.080017 75.43 609.940002 55.52 613.22998 C 35.610001 616.52002 33.310001 616.22998 33.310001 616.22998 L 32 617.830017 Z"></path>
      <path id="path8" fill="#d2d4ec" stroke="none" d="M 179.199997 516.030029 C 167.839996 515.030029 160.940002 520.449951 156.669998 526.880005 C 152.400009 533.309998 150.889999 545.799988 162.910004 549.410034 C 168.308792 550.445068 173.8992 549.390564 178.550003 546.459961 C 186.429993 541.530029 192.360001 532.880005 189.389999 524.579956 C 187.75 519.969971 185.460007 516.719971 179.199997 516.030029 Z"></path>
      <path id="path9" fill="#d2d4ec" stroke="none" d="M 542 513.02002 C 530.640015 512.02002 523.73999 517.440002 519.460022 523.869995 C 515.179993 530.299988 515.290039 541.160034 527.309998 544.77002 C 532.988525 545.413025 538.720154 544.157715 543.609985 541.199951 C 551.5 536.27002 555.159973 529.880005 552.190002 521.569946 C 550.549988 516.969971 547.190002 513.150024 542 513.02002 Z"></path>
      <path id="path10" fill="#e63027" stroke="none" d="M 363.470001 308.769989 C 379.804749 289.985596 406.705475 284.486511 429.101624 295.353485 C 451.497742 306.220428 463.826111 330.754089 459.179993 355.209991 C 455.530731 328.456177 433.031708 308.288513 406.039551 307.575989 C 379.047424 306.863434 355.515717 325.815979 350.459991 352.339996 C 348.306366 336.621429 353.045349 320.738556 363.459991 308.769989 Z"></path>
      <path id="path11" fill="#e63027" stroke="none" d="M 345.690002 266.619995 C 369.008118 239.79657 407.416351 231.942017 439.392883 247.457581 C 471.369385 262.973083 488.969055 298.003632 482.329987 332.919983 C 477.111084 294.731049 444.992249 265.947205 406.461761 264.929504 C 367.931274 263.911743 334.337677 290.959808 327.109985 328.820007 C 324.037628 306.376923 330.81131 283.700867 345.690002 266.619995 Z"></path>
      <path id="path12" fill="#e63027" stroke="none" d="M 324.899994 217.299988 C 356.384277 181.079041 408.246368 170.471497 451.424072 191.421448 C 494.601746 212.371399 518.366028 259.673157 509.399994 306.820007 C 502.357849 255.253784 458.990356 216.384888 406.963684 215.009583 C 354.937012 213.634338 309.576569 250.157837 299.820007 301.279999 C 295.65564 270.971863 304.800354 240.343567 324.899994 217.279968 Z"></path>
      <path id="path13" fill="#e63027" stroke="none" d="M 392.850006 351.279999 C 392.845947 346.339691 395.819336 341.883789 400.382813 339.991333 C 404.946289 338.098907 410.200439 339.142914 413.693756 342.63623 C 417.187103 346.129547 418.231079 351.383698 416.338654 355.947174 C 414.446198 360.510651 409.990295 363.484039 405.049988 363.480011 C 398.314423 363.474487 392.855499 358.015594 392.850006 351.279999 Z"></path>
    </g>
  </g>
</svg>
