<?xml version="1.0" encoding="UTF-8"?>
<!-- Generated by Pixelmator Pro 3.5.6 -->
<svg width="736" height="173" viewBox="0 0 736 173" xmlns="http://www.w3.org/2000/svg">
    <g id="Agrupar">
        <path id="Trazado" fill="#ffffff" stroke="none" d="M 179.899994 73.800018 C 177.100006 73.800018 174.5 74.400024 172 75.700012 C 169.5 76.900024 167.300003 78.800018 165.399994 81.200012 L 165.399994 74 L 155.600006 75 L 155.600006 124.800003 L 165.399994 124.800003 L 165.399994 91 C 167.300003 88 169.300003 86 171.300003 85 C 173.300003 83.900024 175.600006 83.400024 178 83.400024 C 180.100006 83.400024 182.5 83.900024 185 84.800018 L 186.800003 74.700012 C 185.600006 74.400024 184.5 74.200012 183.399994 74 C 182.300003 73.900024 181.199997 73.800018 179.899994 73.800018 Z"/>
        <path id="path1" fill="#ffffff" stroke="none" d="M 215.699997 73.800018 C 207.800003 73.800018 200.199997 76.300018 192.899994 81.300018 L 197.199997 88.100006 C 203.199997 84.200012 208.899994 82.200012 214.5 82.200012 C 217.800003 82.200012 220.100006 83 221.399994 84.5 C 222.800003 86.100006 223.399994 88.5 223.399994 91.900024 L 223.399994 94.400024 C 217.399994 94.600006 212 95.300018 207.100006 96.600006 C 202.199997 97.900024 198.199997 99.900024 195.300003 102.700012 C 192.300003 105.5 190.899994 108.900024 190.899994 113.100006 C 190.899994 115.700012 191.5 117.999985 192.800003 119.999985 C 194 121.999985 195.800003 123.599991 198.100006 124.699997 C 200.399994 125.800003 202.899994 126.300003 205.800003 126.300003 C 212.600006 126.300003 218.600006 124.400009 223.800003 120.599991 L 224.399994 124.900009 L 233.300003 124.900009 L 233.300003 90.300018 C 233.300003 84.600006 231.800003 80.5 228.899994 77.800018 C 225.899994 75.100006 221.5 73.800018 215.699997 73.800018 Z M 223.399994 113.400024 C 218.5 116.400024 213.5 117.900009 208.300003 117.900009 C 206 117.900009 204.199997 117.400009 203 116.400024 C 201.800003 115.400024 201.199997 113.900024 201.199997 112 C 201.199997 108.800018 203.199997 106.400024 207.300003 104.600006 C 211.399994 102.900024 216.699997 101.800018 223.300003 101.5 L 223.300003 113.400024 Z"/>
        <path id="path2" fill="#ffffff" stroke="none" d="M 279.399994 75.300018 C 275.5 74.300018 271.899994 73.800018 268.600006 73.800018 C 263.700012 73.800018 259.299988 74.900024 255.399994 77 C 251.5 79.200012 248.5 82.300018 246.300003 86.5 C 244.100006 90.700012 243 95.600006 243 101.400024 C 243 106.5 243.800003 110.900024 245.399994 114.600006 C 247 118.300003 249.399994 121.199997 252.5 123.199997 C 255.600006 125.199997 259.299988 126.199997 263.700012 126.199997 C 266.100006 126.199997 268.700012 125.800003 271.5 124.900009 C 274.299988 123.999985 277.100006 122.800003 279.799988 121.199997 L 280.299988 124.800003 L 289.200012 124.800003 L 289.200012 45.700012 L 279.399994 46.800018 L 279.399994 75.300018 Z M 279.399994 114.100006 C 275.200012 116.600006 270.799988 117.800003 266.5 117.800003 C 262.299988 117.800003 259.100006 116.400024 256.899994 113.700012 C 254.699997 111 253.5 106.800018 253.5 101.100006 C 253.5 96.700012 254.199997 93 255.600006 90.100006 C 257 87.100006 258.899994 85 261.299988 83.600006 C 263.700012 82.200012 266.399994 81.5 269.5 81.5 C 272.799988 81.5 276.100006 82.100006 279.5 83.200012 L 279.5 114.100006 Z"/>
        <path id="path3" fill="#ffffff" stroke="none" d="M 310.700012 52.100006 C 309.600006 51.5 308.5 51.100006 307.200012 51.100006 C 306 51.100006 304.899994 51.400024 303.799988 52.100006 C 302.700012 52.700012 301.899994 53.600006 301.200012 54.700012 C 300.600006 55.800018 300.200012 56.900024 300.200012 58.200012 C 300.200012 59.400024 300.5 60.5 301.200012 61.600006 C 301.799988 62.700012 302.700012 63.5 303.799988 64.200012 C 304.899994 64.800018 306 65.200012 307.200012 65.200012 C 308.5 65.200012 309.700012 64.900024 310.700012 64.200012 C 311.799988 63.600006 312.600006 62.700012 313.299988 61.600006 C 313.899994 60.5 314.299988 59.400024 314.299988 58.200012 C 314.299988 56.900024 314 55.700012 313.299988 54.700012 C 312.600006 53.600006 311.700012 52.700012 310.700012 52.100006 Z"/>
        <path id="path4" fill="#ffffff" stroke="none" d="M 302.399994 124.900009 L 312.200012 124.900009 L 312.200012 74 L 302.399994 75.200012 Z"/>
        <path id="path5" fill="#ffffff" stroke="none" d="M 360.899994 77.300018 C 357.299988 75 352.899994 73.800018 347.600006 73.800018 C 342.700012 73.800018 338.299988 74.700012 334.399994 76.5 C 330.5 78.300018 327.5 81.100006 325.200012 85 C 322.899994 88.900024 321.799988 93.900024 321.799988 99.900024 C 321.799988 104.900024 322.700012 109.400024 324.399994 113.300018 C 326.100006 117.300003 328.799988 120.400009 332.299988 122.699997 C 335.899994 124.999985 340.299988 126.199997 345.600006 126.199997 C 350.5 126.199997 354.899994 125.300003 358.799988 123.499985 C 362.700012 121.699997 365.700012 118.900009 368 115 C 370.299988 111.100006 371.399994 106.100006 371.399994 100 C 371.399994 95 370.5 90.5 368.799988 86.600006 C 367.100006 82.700012 364.399994 79.600006 360.899994 77.300018 Z M 346.600006 118.300003 C 341.799988 118.300003 338.100006 116.600006 335.700012 113.300018 C 333.299988 110 332.100006 105.5 332.100006 99.900024 C 332.100006 94.200012 333.299988 89.800018 335.600006 86.600006 C 337.899994 83.400024 341.700012 81.800018 347 81.800018 C 351.799988 81.800018 355.299988 83.400024 357.700012 86.700012 C 360.100006 90 361.299988 94.400024 361.299988 99.900024 C 361.200012 112.200012 356.299988 118.300003 346.600006 118.300003 Z"/>
        <path id="path6" fill="#ffffff" stroke="none" d="M 418.299988 72.100006 C 415.299988 72.100006 412.299988 72.600006 409.5 73.600006 C 406.700012 74.600006 403.799988 75.900024 401 77.700012 L 401 72.700012 L 385.700012 74.200012 L 385.700012 124.900009 L 401 124.900009 L 401 87.300018 C 405.100006 84.900024 408.700012 83.700012 411.799988 83.700012 C 413.600006 83.700012 415.100006 84 416.100006 84.5 C 417.100006 85 417.799988 85.900024 418.200012 87.100006 C 418.600006 88.300018 418.799988 89.900024 418.799988 92 L 418.799988 124.900009 L 434.100006 124.900009 L 434.100006 87.400024 C 434.100006 82.400024 432.799988 78.600006 430.100006 76 C 427.5 73.400024 423.600006 72.100006 418.299988 72.100006 Z"/>
        <path id="path7" fill="#ffffff" stroke="none" d="M 481.299988 75.100006 C 477.799988 73.100006 473.5 72.100006 468.5 72.100006 C 463.299988 72.100006 458.799988 73.200012 454.899994 75.300018 C 451.100006 77.5 448.200012 80.600006 446.200012 84.800018 C 444.200012 89 443.200012 93.900024 443.200012 99.700012 C 443.200012 106 444.399994 111.100006 446.799988 115.100006 C 449.200012 119.099991 452.399994 121.999985 456.299988 123.800003 C 460.299988 125.599991 464.799988 126.499985 469.700012 126.499985 C 473.899994 126.499985 477.700012 125.900009 481.299988 124.800003 C 484.899994 123.699997 488 122.099991 490.700012 119.999985 L 485.5 110.700012 C 482.899994 112.200012 480.5 113.300018 478.200012 114 C 475.899994 114.700012 473.600006 115 471.200012 115 C 467.899994 115 465.100006 114 462.799988 112 C 460.5 110 459.100006 106.900024 458.600006 102.600006 L 491.299988 102.600006 C 491.600006 98.800018 491.799988 96.200012 491.799988 94.700012 C 491.799988 90.400024 490.899994 86.5 489.200012 83.100006 C 487.399994 79.700012 484.799988 77 481.299988 75.100006 Z M 476.399994 92.700012 L 459 92.700012 C 459.600006 89.200012 460.700012 86.700012 462.200012 85 C 463.799988 83.400024 465.799988 82.600006 468.399994 82.600006 C 470.799988 82.600006 472.700012 83.400024 474.200012 84.900024 C 475.700012 86.400024 476.399994 88.900024 476.399994 92.400024 L 476.399994 92.700012 Z"/>
        <path id="path8" fill="#ffffff" stroke="none" d="M 516.5 79.800018 L 516.5 72.700012 L 501.200012 74.200012 L 501.200012 124.900009 L 516.5 124.900009 L 516.5 93.800018 C 518.299988 91.400024 520.200012 89.700012 522 88.800018 C 523.899963 87.900024 525.799988 87.400024 527.799988 87.400024 C 529.099976 87.400024 530.200012 87.5 531.200012 87.700012 C 532.200012 87.900024 533.299988 88.300018 534.5 88.700012 L 536.799988 73.200012 C 534.899963 72.5 532.799988 72.200012 530.599976 72.200012 C 525 72.100006 520.299988 74.700012 516.5 79.800018 Z"/>
        <path id="path9" fill="#ffffff" stroke="none" d="M 569.799988 100.900024 C 569.299988 102.600006 568.900024 104.400024 568.599976 106.200012 C 568.200012 108 568 109.200012 567.799988 109.800018 C 567.299988 107.300018 566.5 104.300018 565.400024 100.800018 L 556.700012 73.700012 L 540.400024 73.700012 L 540.400024 74.5 L 559.799988 124.800003 L 575.299988 124.800003 L 594.099976 74.5 L 594.099976 73.700012 L 577.099976 73.700012 L 569.799988 100.900024 Z"/>
        <path id="path10" fill="#ffffff" stroke="none" d="M 612.700012 48.300018 C 611.099976 47.400024 609.5 47 607.700012 47 C 606 47 604.299988 47.400024 602.799988 48.300018 C 601.299988 49.200012 600.099976 50.300018 599.200012 51.800018 C 598.299988 53.300018 597.799988 54.900024 597.799988 56.600006 C 597.799988 58.300018 598.299988 59.900024 599.200012 61.400024 C 600.099976 62.800018 601.299988 64 602.799988 64.900024 C 604.299988 65.800018 605.900024 66.200012 607.700012 66.200012 C 609.5 66.200012 611.200012 65.800018 612.700012 64.900024 C 614.200012 64 615.5 62.900024 616.400024 61.400024 C 617.299988 60 617.799988 58.400024 617.799988 56.600006 C 617.799988 54.900024 617.299988 53.300018 616.400024 51.800018 C 615.5 50.300018 614.200012 49.200012 612.700012 48.300018 Z"/>
        <path id="path11" fill="#ffffff" stroke="none" d="M 600.299988 124.900009 L 615.599976 124.900009 L 615.599976 72.700012 L 600.299988 74.200012 Z"/>
        <path id="path12" fill="#ffffff" stroke="none" d="M 667.900024 58.800018 L 660.299988 46.600006 L 640 62.200012 L 645 69.400024 Z"/>
        <path id="path13" fill="#ffffff" stroke="none" d="M 666.900024 75.600006 C 662.900024 73.300018 658.099976 72.100006 652.299988 72.100006 C 647.200012 72.100006 642.5 73 638.299988 74.800018 C 634.099976 76.600006 630.799988 79.5 628.299988 83.5 C 625.799988 87.5 624.5 92.800018 624.5 99.300018 C 624.5 104.400024 625.5 109 627.5 113.100006 C 629.5 117.199997 632.400024 120.499985 636.400024 122.900009 C 640.400024 125.300003 645.200012 126.499985 650.900024 126.499985 C 656.200012 126.499985 660.900024 125.599991 665.099976 123.699997 C 669.299988 121.800003 672.599976 118.900009 675.099976 114.800018 C 677.599976 110.800018 678.799988 105.600006 678.799988 99.300018 C 678.799988 93.900024 677.799988 89.200012 675.799988 85.100006 C 673.799988 81.100006 670.799988 77.900024 666.900024 75.600006 Z M 660.299988 110.800018 C 658.599976 113.600006 655.700012 115.100006 651.599976 115.100006 C 647.799988 115.100006 645 113.700012 643.099976 110.900024 C 641.200012 108.100006 640.299988 104.200012 640.299988 99.300018 C 640.299988 94.100006 641.200012 90.200012 643 87.600006 C 644.799988 85 647.799988 83.700012 651.799988 83.700012 C 655.5 83.700012 658.299988 85 660.099976 87.700012 C 661.900024 90.300018 662.799988 94.200012 662.799988 99.400024 C 662.799988 104.100006 662 107.900024 660.299988 110.800018 Z"/>
        <path id="path14" fill="#ffffff" stroke="none" d="M 732.299988 76 C 729.599976 73.400024 725.700012 72.100006 720.5 72.100006 C 717.5 72.100006 714.5 72.600006 711.700012 73.600006 C 708.900024 74.600006 706 75.900024 703.200012 77.700012 L 703.200012 72.700012 L 687.900024 74.200012 L 687.900024 124.900009 L 703.200012 124.900009 L 703.200012 87.300018 C 707.299988 84.900024 710.900024 83.700012 714 83.700012 C 715.799988 83.700012 717.299988 84 718.299988 84.5 C 719.299988 85 720 85.900024 720.400024 87.100006 C 720.799988 88.300018 721 89.900024 721 92 L 721 124.900009 L 736.299988 124.900009 L 736.299988 87.400024 C 736.299988 82.400024 735 78.600006 732.299988 76 Z"/>
    </g>
    <g id="Agrupar-copia">
        <path id="path15" fill="#ffffff" stroke="none" d="M 22.024511 39.837891 C 23.978947 39.056107 25.803087 38.404617 27.627228 37.688019 C 29.9074 36.775925 32.122421 35.798706 34.402596 34.886642 C 38.311462 33.323105 42.15519 31.759567 46.064056 30.130859 C 51.666763 27.850693 57.269478 25.505371 62.872185 23.225189 C 63.328228 23.029755 64.044846 23.029755 64.500877 23.225189 C 70.689919 25.635666 76.87896 28.046127 83.068001 30.456604 C 89.257042 32.867065 95.446083 35.277542 101.635132 37.688019 C 107.563583 40.033325 113.55719 42.378647 119.485626 44.723969 C 119.811363 44.854279 120.1371 45.245148 120.202255 45.570885 C 121.244621 50.91301 122.22184 56.189987 123.199059 61.532112 C 124.111122 66.48333 124.958054 71.43457 125.80497 76.385803 C 126.195862 78.665977 126.586746 80.946152 127.04277 83.226326 C 127.173073 83.877808 127.04277 84.13839 126.391296 84.13839 C 119.029602 84.203545 111.667885 84.203545 104.30619 84.268692 C 104.241043 84.268692 104.110756 84.203545 103.850151 84.203545 C 103.980453 83.942955 104.110756 83.682365 104.241043 83.486916 C 105.934891 81.402199 107.107536 78.991722 107.759018 76.385803 C 108.345367 73.910202 108.540802 71.304283 108.14991 68.763504 C 107.042412 61.792702 103.198669 56.841469 96.749046 54.0401 C 93.621956 52.672012 90.299416 52.737144 86.91172 53.258339 C 83.393745 53.844666 80.527245 55.473358 78.051628 57.883835 C 75.119972 60.750336 73.29583 64.268311 72.709503 68.372635 C 72.318619 71.304283 72.579216 74.170784 73.165543 77.037285 C 73.621574 79.252304 74.794235 81.206741 76.097191 82.965736 C 76.292633 83.226326 76.422928 83.421761 76.553223 83.682365 C 76.553223 83.747498 76.553223 83.812653 76.553223 84.00811 C 71.3414 84.00811 66.194725 84.00811 60.917751 84.00811 C 61.048054 83.812653 61.178349 83.552063 61.373791 83.356628 C 64.500877 79.382607 66.06443 74.887413 65.673538 69.740723 C 65.347801 65.831856 64.17514 62.248726 61.699532 59.18679 C 59.484501 56.385422 56.683144 54.365837 53.230316 53.258339 C 50.103218 52.215965 47.041275 52.085663 43.849026 52.802292 C 38.050877 54.170403 33.881409 57.623245 31.405802 63.095657 C 30.233139 65.636421 29.646803 68.372635 29.711954 71.173981 C 29.777107 75.538895 31.080063 79.512894 33.816269 82.965736 C 34.076855 83.291481 34.272301 83.617218 34.598042 84.073242 C 23.066881 84.073242 11.666015 84.073242 0.199997 84.073242 C 0.199997 83.552063 0.199997 83.096024 0.199997 82.705154 C 0.199997 59.251945 0.199997 35.863861 0.199997 12.41066 C 0.199997 11.628891 0.460589 11.107697 0.981769 10.521378 C 3.91342 7.263977 6.845071 3.941437 9.776722 0.684052 C 10.623646 -0.228012 10.558504 -0.228012 11.47057 0.684052 C 14.597666 3.876282 17.724762 7.068542 20.851849 10.195633 C 21.373034 10.716812 21.56848 11.238007 21.56848 12.01976 C 21.56848 18.208801 21.56848 24.332718 21.56848 30.521759 C 21.56848 33.25795 21.633631 35.994171 21.698772 38.665237 C 21.894218 39.121262 21.95937 39.381836 22.024511 39.837891 Z"/>
        <path id="path16" fill="#ffffff" stroke="none" d="M 121.570358 123.422516 C 121.309776 124.660324 121.179466 125.832977 120.853729 126.940498 C 120.788582 127.20108 120.071968 127.657127 119.615929 127.72226 C 109.452866 129.025208 91.928108 131.0448 91.928108 131.0448 C 91.928108 131.0448 47.041275 131.305389 26.259119 129.285828 C 17.920198 128.438889 9.450983 128.438889 1.112072 128.243454 C 1.04692 128.243454 0.916627 128.178299 0.786333 128.178299 C 0.786333 125.246651 0.786333 122.380157 0.786333 119.513657 C 0.786333 119.122757 21.242741 120.42572 23.001728 120.556 C 30.62402 121.207474 38.181171 122.575592 45.803459 123.357368 C 53.03487 124.073997 60.461716 124.26944 67.75827 124.530022 C 79.484871 124.986069 91.276634 124.920914 103.003235 124.204285 C 106.716667 123.943695 110.495232 123.943695 114.208664 123.74826 C 116.619125 123.61795 119.029602 123.552803 121.570358 123.422516 Z"/>
        <path id="path17" fill="#ffffff" stroke="none" d="M 101.048805 135.474869 C 99.48526 136.126343 97.921715 136.777817 96.358154 137.429291 C 91.732674 139.253433 87.042023 141.07756 82.416527 142.901703 C 80.527245 143.618347 78.703102 144.269821 76.81382 144.986435 C 76.097191 145.24704 75.380569 145.572769 74.598785 145.637909 C 73.751877 145.703064 72.839798 145.637909 71.992874 145.507629 C 65.087212 144.725845 58.116402 144.009216 51.14558 143.422882 C 49.777481 143.292603 48.474525 143.227448 47.106419 142.966858 C 44.891396 142.445663 42.741516 141.403305 40.591637 140.556381 C 36.747921 138.992844 32.904194 137.364151 29.060476 135.735443 C 27.822672 135.214264 26.584858 134.62793 25.347054 133.911301 C 26.32427 133.976456 27.301489 134.041595 28.343847 134.10675 C 30.689173 134.237045 32.969345 134.432495 35.314671 134.62793 C 39.158386 134.888519 42.936962 135.083969 46.780678 135.344559 C 50.689545 135.539993 54.598415 135.865738 58.507282 135.996033 C 64.891769 136.256622 71.3414 136.517212 77.725883 136.517212 C 82.221092 136.517212 86.716286 136.126343 91.211479 135.865738 C 94.468872 135.670303 97.791412 135.474869 101.048805 135.279404 C 100.98365 135.279404 101.048805 135.344559 101.048805 135.474869 Z"/>
        <path id="path18" fill="#ffffff" stroke="none" d="M 0.916627 88.763893 C 12.252341 88.763893 23.588064 88.763893 35.054073 88.763893 C 34.663193 89.285065 34.337452 89.806259 34.011715 90.197151 C 31.926977 92.933342 30.819466 95.9953 30.298281 99.317841 C 30.167988 99.969322 29.972542 100.229904 29.255922 100.229904 C 20.070078 100.229904 10.819091 100.229904 1.633247 100.229904 C 1.437811 100.229904 1.177214 100.229904 0.851475 100.229904 C 0.916627 96.386192 0.916627 92.607605 0.916627 88.763893 Z"/>
        <path id="path19" fill="#ffffff" stroke="none" d="M 108.084755 107.135582 C 108.736237 103.747887 108.801384 100.555649 108.345367 97.363411 C 107.88932 94.17115 106.195473 91.500107 104.371346 88.829041 C 112.123932 88.829041 119.746231 88.829041 127.563965 88.829041 C 126.391296 95.474106 125.218643 101.988884 123.980835 108.568817 C 118.703857 108.112793 113.492035 107.656754 108.084755 107.135582 Z"/>
        <path id="path20" fill="#ffffff" stroke="none" d="M 0.786333 144.334946 C 7.822288 144.074371 14.793112 143.813782 21.894218 143.553192 C 21.894218 147.396912 21.894218 151.175476 21.894218 155.019211 C 18.506535 154.823746 15.183992 154.693466 11.86146 154.498016 C 8.408625 154.302582 4.890637 154.107117 1.437811 153.911682 C 1.242366 153.911682 0.851475 153.585953 0.851475 153.390503 C 0.786333 150.393707 0.786333 147.462051 0.786333 144.334946 Z"/>
        <path id="path21" fill="#ffffff" stroke="none" d="M 0.851475 140.947281 C 0.851475 137.885315 0.851475 135.083969 0.851475 132.152313 C 7.88744 132.478058 14.923405 132.803802 21.95937 133.194687 C 21.95937 136.061188 21.95937 138.667099 21.95937 141.598755 C 14.858253 141.338165 7.88744 141.142715 0.851475 140.947281 Z"/>
        <path id="path22" fill="#ffffff" stroke="none" d="M 61.373791 88.763893 C 66.781052 88.763893 71.862579 88.763893 77.269852 88.763893 C 73.817017 92.998497 72.579216 97.75428 72.709503 103.031258 C 70.559624 103.031258 68.409744 103.031258 66.194725 103.031258 C 66.390175 97.75428 64.891769 92.998497 61.373791 88.763893 Z"/>
        <path id="path23" fill="#ffffff" stroke="none" d="M 0.786333 157.559967 C 7.88744 157.559967 14.793112 157.559967 22.024511 157.559967 C 21.95937 158.99321 21.95937 160.426468 21.698772 161.794571 C 21.633631 162.185471 20.786707 162.706635 20.265524 162.706635 C 15.314286 162.641495 10.363059 162.446045 5.411821 162.31575 C 4.239159 162.250595 3.131648 162.120316 1.958986 161.924866 C 1.112072 161.794571 0.721181 161.338531 0.721181 160.491623 C 0.851475 159.514404 0.786333 158.537186 0.786333 157.559967 Z"/>
        <path id="path24" fill="#ffffff" stroke="none" d="M 18.636827 165.182251 C 16.161209 167.723022 13.685591 170.328934 11.079679 172.999985 C 8.473766 170.068329 5.933006 167.201828 3.392245 164.400482 C 3.392245 164.335327 3.457387 164.270187 3.457387 164.139893 C 8.473766 164.335327 13.490155 164.530777 18.506535 164.726227 C 18.571676 164.921661 18.636827 165.051971 18.636827 165.182251 Z"/>
        <path id="path25" fill="#ffffff" stroke="none" d="M 57.530067 147.266602 C 61.569229 147.396912 65.673538 147.592346 69.7127 147.722641 C 68.474899 148.24382 68.084007 148.374115 65.999283 149.286194 C 64.240295 150.067963 62.872185 149.742233 61.30864 148.960449 C 60.070835 148.374115 58.767879 147.918076 57.530067 147.266602 C 57.530067 147.331757 57.530067 147.331757 57.530067 147.266602 Z"/>
        <path id="path26" fill="#ffffff" stroke="none" d="M 37.399399 115.865372 C 37.464539 115.995651 35.184368 115.735069 35.184368 115.735069 L 0.851475 113.780632 L 0.851475 106.353798 L 30.167988 107.787056 L 31.275497 107.787056 C 31.796682 109.090012 32.448162 110.39296 33.229931 111.500458 C 34.402596 113.194305 35.770702 114.627563 37.399399 115.865372 L 37.399399 115.865372 Z"/>
        <path id="path27" fill="#ffffff" stroke="none" d="M 122.873314 114.627563 C 122.873314 114.627563 122.352142 118.015244 122.22184 119.122757 C 122.026405 120.230263 119.876511 119.839386 119.876511 119.839386 C 109.387711 119.839386 98.898933 120.556 88.344978 120.556 C 77.921333 120.556 67.627975 119.774239 57.269478 118.927307 C 56.227108 118.927307 55.054447 118.862175 54.077229 118.601563 C 56.683144 117.298615 59.15876 116.256264 61.243488 114.106369 C 62.155563 113.194305 62.937336 112.217087 63.653965 111.174721 C 63.914555 110.783829 66.520462 111.239868 67.106789 111.305023 C 69.517265 111.43531 71.862579 111.43531 74.273048 111.370178 L 75.901749 111.500458 C 79.224289 116.256264 84.696701 119.448502 90.95089 119.448502 C 95.967278 119.448502 100.527626 117.428909 103.850151 114.106369 L 122.873314 114.627563 Z"/>
    </g>
</svg>
